<?xml version="1.0" standalone="no"?>
<!DOCTYPE svg PUBLIC "-//W3C//DTD SVG 20010904//EN"
 "http://www.w3.org/TR/2001/REC-SVG-20010904/DTD/svg10.dtd">
<svg version="1.0" xmlns="http://www.w3.org/2000/svg"
 width="512.000000pt" height="512.000000pt" viewBox="0 0 512.000000 512.000000"
 preserveAspectRatio="xMidYMid meet">
<metadata>
Created by potrace 1.11, written by Peter Selinger 2001-2013
</metadata>
<g transform="translate(0.000000,512.000000) scale(0.100000,-0.100000)"
fill="#000000" stroke="none">
<path d="M0 4393 c0 -400 4 -723 8 -718 4 6 27 35 50 66 157 209 514 401 871
469 175 33 484 31 688 -5 635 -110 1005 -539 943 -1093 -30 -276 -155 -522
-366 -720 -199 -188 -394 -268 -679 -279 -245 -9 -385 19 -462 92 -38 37 -43
46 -43 88 0 28 6 52 16 61 19 20 92 41 210 61 239 40 328 78 435 184 123 123
180 266 199 503 21 250 -26 406 -159 530 -152 143 -403 206 -715 179 -248 -20
-386 -61 -666 -196 -183 -88 -231 -105 -292 -105 l-38 0 0 -1755 0 -1755 2560
0 2560 0 0 773 0 772 -35 -69 c-88 -170 -255 -326 -460 -429 -392 -196 -994
-206 -1381 -23 -317 150 -508 405 -568 759 -21 122 -22 376 -1 551 52 446 229
885 503 1251 l30 40 -44 58 c-62 83 -113 177 -145 271 -43 122 -36 192 22 225
48 27 103 -5 248 -142 70 -67 139 -128 154 -136 25 -13 29 -12 69 21 176 143
363 237 583 294 105 28 120 29 320 28 184 0 220 -3 290 -22 121 -33 201 -77
270 -146 99 -99 141 -224 132 -386 -8 -147 -67 -259 -185 -354 -195 -158 -453
-204 -827 -150 -121 18 -186 34 -328 81 -60 19 -110 33 -111 32 -16 -20 -104
-197 -140 -282 -104 -244 -155 -478 -163 -748 -7 -223 6 -345 50 -479 70 -214
205 -339 416 -386 99 -22 330 -15 448 15 169 42 364 139 497 248 33 26 103 97
157 158 94 107 153 150 186 138 11 -4 13 262 13 1576 l0 1581 -2560 0 -2560 0
0 -727z m966 -838 c19 -46 19 -272 -1 -432 -19 -153 -62 -387 -130 -713 -80
-378 -82 -399 -105 -855 -12 -231 -26 -443 -31 -472 -14 -72 -44 -111 -114
-149 -80 -44 -184 -65 -326 -67 -104 -2 -119 0 -139 18 -37 33 -48 67 -59 175
-32 306 12 694 129 1155 156 615 332 1035 521 1249 62 70 152 126 201 126 35
0 40 -4 54 -35z"/>
<path d="M4295 3810 c-74 -14 -160 -45 -232 -86 -65 -36 -183 -128 -183 -143
0 -11 89 -35 205 -57 130 -24 363 -25 431 -1 71 25 96 54 101 119 8 108 -57
165 -194 173 -43 2 -100 0 -128 -5z"/>
</g>
</svg>
